<svg id="Layer_1" data-name="Layer 1" xmlns="http://www.w3.org/2000/svg" viewBox="0 0 1260 209"><title>betterTemplelogo2</title><path d="M163.33,146.43a2.75,2.75,0,0,1-.17.29h.39Zm-127,.29h.39a2.38,2.38,0,0,1-.18-.3Z" transform="translate(0 -0.05)" style="fill:#fff"/><path d="M170.86,30.88C152,11,126.78.05,100,.05S48,11,29.06,30.88a107.89,107.89,0,0,0,0,147.33C48,198.1,73.14,209.05,100,209.05s52-11,70.9-30.84A107.89,107.89,0,0,0,170.86,30.88ZM90,114.16v20.5H59.31l21-30.74h36.6l22.67,30.74H110v-20.5ZM88.55,91.8l9.31-13.66L107.94,91.8Zm8.93-34.59L73.88,91.8H59.31L97.86,35.29,139.55,91.8H123ZM36.76,146.77h-.39l.21-.3a82.36,82.36,0,0,1-11.34-41.92c0-39.94,28-73.07,64.25-78.48L36.37,103.88H65.61l-29,42.55a2.38,2.38,0,0,0,.18.3H90v36.32c-22.41-3.17-41.68-16.93-53.24-36.33Zm126.57-.29.22.29h-.4c-11.56,19.4-30.83,33.14-53.21,36.32V146.72h53.21a2.75,2.75,0,0,0,.17-.29l-31.38-42.55h31.61l-57.83-78.4c38.52,3.13,68.95,37.38,68.95,79a82.25,82.25,0,0,1-11.34,42Z" transform="translate(0 -0.05)" style="fill:#fff"/><path d="M163.33,146.43a2.75,2.75,0,0,1-.17.29h.39Zm-127,.29h.39a2.38,2.38,0,0,1-.18-.3Z" transform="translate(0 -0.05)" style="fill:#fff"/><path d="M315,96.25a69.45,69.45,0,0,1,.56,8.61c0,28.62-20.44,49.2-48.92,49.2s-50.9-21.57-50.9-49.35c0-27.63,22.14-49.34,50.47-49.34,21,0,39.48,9.87,46.11,28.34l-22.42,6.48c-5.5-10.71-14.52-13.53-23.69-13.53-15.36,0-27.07,12.12-27.07,28.05,0,16.08,12,28.2,27.78,28.2,12.41,0,21.43-6.48,25-16.92H263V96.25Z" transform="translate(0 -0.05)" style="fill:#fff"/><path d="M392.94,107.11V152H371.23v-5.22c-4.94,4.23-11.7,7.33-21.15,7.33-15.79,0-26.37-9.16-26.37-23.12s10.58-22.84,29.47-22.84h18.05v-1.41c0-5.92-4.09-9.87-10-9.87-6.77,0-10.72,2.68-11.84,8.88l-21.29-4.37c3.1-13.68,15.5-22.28,32.42-22.28C380.39,79.05,392.94,89.06,392.94,107.11ZM371.23,124v-1.55H355.72c-5.64,0-9.16,3-9.16,7.33s3.94,7.33,9.86,7.33C364.18,137.14,371.23,131.93,371.23,124Z" transform="translate(0 -0.05)" style="fill:#fff"/><path d="M459.06,80.75l-1,22.55H454c-15.79,0-24.39,8.18-24.39,26.51V152H407V81.17H429.6V94.7c5.07-8.46,12.83-14.52,24.39-14.52A19,19,0,0,1,459.06,80.75Z" transform="translate(0 -0.05)" style="fill:#fff"/><path d="M542.11,152H519.55v-5.64c-5.5,4.93-12.83,7.75-22,7.75C478.8,154.06,463,139,463,116.56s15.79-37.51,34.54-37.51c9.17,0,16.5,2.82,22,7.76V43.38h22.56Zm-22.56-35.39c0-10.86-8.18-18.33-17.34-18.33-9.87,0-17.06,7.47-17.06,18.33s7.19,18.33,17.06,18.33C511.37,134.89,519.55,127.55,519.55,116.56Z" transform="translate(0 -0.05)" style="fill:#fff"/><path d="M627.82,122.34H575.94c1.83,8.46,7.61,13.67,15.23,13.67,5.21,0,11.28-1.27,15.08-8.17l20,4.09c-6.06,14.94-18.89,22.13-35.1,22.13-20.45,0-37.37-15.09-37.37-37.5s16.92-37.51,37.51-37.51c20,0,36.09,14.39,36.51,37.51Zm-51.46-13.82h29.19c-2.12-7.61-7.76-11.14-14.24-11.14A15.51,15.51,0,0,0,576.36,108.52Z" transform="translate(0 -0.05)" style="fill:#fff"/><path d="M711.29,108.52V152H688.87V113.31c0-8.31-4.93-14-12.13-14-8.88,0-14.66,6.06-14.66,19.74V152H639.52V81.17h22.56v6.77c5.36-5.64,12.83-8.89,21.71-8.89C700.29,79.05,711.29,90.76,711.29,108.52Z" transform="translate(0 -0.05)" style="fill:#fff"/><path d="M807.72,77.79V152H784.6V77.79H754V57.48h84.31V77.79Z" transform="translate(0 -0.05)" style="fill:#fff"/><path d="M907.4,122.34H855.51c1.84,8.46,7.62,13.67,15.23,13.67,5.22,0,11.28-1.27,15.09-8.17l20,4.09c-6.07,14.94-18.9,22.13-35.11,22.13-20.44,0-37.36-15.09-37.36-37.5s16.92-37.51,37.5-37.51c20,0,36.1,14.39,36.52,37.51Zm-51.46-13.82h29.18c-2.11-7.61-7.75-11.14-14.24-11.14A15.5,15.5,0,0,0,855.94,108.52Z" transform="translate(0 -0.05)" style="fill:#fff"/><path d="M1037.81,107.67V152h-22.42V112.47c0-8-5.21-13.11-11.84-13.11-8.32,0-13.82,6.06-13.82,17.9V152H967.17V112.47c0-8-5.21-13.11-12-13.11-8.18,0-13.54,6.06-13.54,17.9V152H919.1V81.17h22.55v6.48c4.8-5.35,11.71-8.6,20.87-8.6,9.87,0,18.33,4.23,23.12,12,5.64-7.33,14.1-12,25.1-12C1025.83,79.05,1037.81,90.47,1037.81,107.67Z" transform="translate(0 -0.05)" style="fill:#fff"/><path d="M1132.27,116.56c0,22.41-15.79,37.5-34.54,37.5-9.17,0-16.5-2.82-22-7.75v39.47h-22.56V81.17h22.56v5.64c5.5-4.94,12.83-7.76,22-7.76C1116.48,79.05,1132.27,94.28,1132.27,116.56Zm-22.14,0c0-10.86-7.19-18.33-17.06-18.33-9.16,0-17.34,7.47-17.34,18.33s8.18,18.33,17.34,18.33C1102.94,134.89,1110.13,127.55,1110.13,116.56Z" transform="translate(0 -0.05)" style="fill:#fff"/><path d="M1165.54,127.84c0,3.66,2.68,6.2,6.77,6.2,2,0,4.93-.85,8.17-2l3.53,17.62c-4.09,2-8.46,4.37-16.64,4.37-14.66,0-24.39-9.87-24.39-24.53V43.38h22.56Z" transform="translate(0 -0.05)" style="fill:#fff"/><path d="M1260,122.34h-51.88c1.83,8.46,7.61,13.67,15.22,13.67,5.22,0,11.28-1.27,15.09-8.17l20,4.09c-6.06,14.94-18.89,22.13-35.11,22.13-20.44,0-37.36-15.09-37.36-37.5s16.92-37.51,37.5-37.51c20,0,36.1,14.39,36.52,37.51Zm-51.46-13.82h29.18c-2.11-7.61-7.75-11.14-14.24-11.14A15.5,15.5,0,0,0,1208.54,108.52Z" transform="translate(0 -0.05)" style="fill:#fff"/></svg>